<?xml version="1.0" encoding="UTF-8"?>
<svg xmlns="http://www.w3.org/2000/svg" viewBox="0 0 1200 750"><text x="600" y="35" font-size="22" font-weight="bold" text-anchor="middle" fill="#1a1a1a">Courbes de Survie PTG — Registres Suedois/Britannique</text><line x1="150" y1="650" x2="1100" y2="650" stroke="#333" stroke-width="2"/><line x1="150" y1="650" x2="150" y2="100" stroke="#333" stroke-width="2"/><text x="1120" y="660" font-size="12" fill="#333">Années</text><text x="130" y="80" font-size="12" fill="#333">Survie (%)</text><text x="150" y="675" font-size="10" fill="#666">0</text><text x="300" y="675" font-size="10" fill="#666">5</text><text x="450" y="675" font-size="10" fill="#666">10</text><text x="600" y="675" font-size="10" fill="#666">15</text><text x="750" y="675" font-size="10" fill="#666">20</text><text x="900" y="675" font-size="10" fill="#666">25</text><text x="120" y="655" font-size="10" fill="#666">70</text><text x="120" y="530" font-size="10" fill="#666">80</text><text x="120" y="405" font-size="10" fill="#666">90</text><text x="120" y="280" font-size="10" fill="#666">95</text><text x="120" y="155" font-size="10" fill="#666">99</text><polyline points="150,280 300,400 450,500 600,570 750,620 900,650" stroke="#27ae60" stroke-width="3" fill="none"/><circle cx="150" cy="280" r="4" fill="#27ae60"/><circle cx="300" cy="400" r="4" fill="#27ae60"/><circle cx="450" cy="500" r="4" fill="#27ae60"/><circle cx="600" cy="570" r="4" fill="#27ae60"/><circle cx="750" cy="620" r="4" fill="#27ae60"/><circle cx="900" cy="650" r="4" fill="#27ae60"/><text x="300" y="250" font-size="11" font-weight="bold" fill="#27ae60">MA Standard</text><text x="300" y="268" font-size="10" fill="#27ae60">92-96% @ 20ans</text></svg>
